<?xml version="1.0" standalone="no"?>
<!DOCTYPE svg PUBLIC "-//W3C//DTD SVG 20010904//EN"
 "http://www.w3.org/TR/2001/REC-SVG-20010904/DTD/svg10.dtd">
<svg version="1.0" xmlns="http://www.w3.org/2000/svg"
 width="361.000000pt" height="361.000000pt" viewBox="0 0 361.000000 361.000000"
 preserveAspectRatio="xMidYMid meet">

<g transform="translate(0.000000,361.000000) scale(0.100000,-0.100000)"
fill="#066d36" stroke="none">
<path d="M1700 3490 c-14 -4 -43 -9 -65 -9 -102 -3 -322 -69 -472 -142 -353
-173 -625 -477 -772 -864 -59 -157 -106 -405 -106 -565 0 -140 49 -418 95
-535 20 -53 57 -136 88 -196 1 -4 -65 -17 -148 -30 -119 -18 -150 -26 -150
-39 0 -25 100 -202 170 -302 82 -119 287 -324 410 -411 118 -83 341 -195 480
-241 374 -122 782 -122 1160 0 138 45 362 157 480 241 125 90 285 245 375 364
86 114 184 283 191 330 l6 34 -148 23 c-81 12 -149 24 -152 26 -2 2 8 26 22
52 68 135 81 176 146 461 6 23 10 131 10 240 0 248 -28 404 -108 605 -230 574
-765 947 -1382 964 -58 1 -116 -1 -130 -6z m360 -51 c85 -13 239 -59 331 -99
280 -122 537 -353 694 -625 139 -239 205 -493 205 -782 0 -123 -14 -267 -35
-358 -31 -131 -154 -435 -177 -435 -4 0 -8 56 -8 126 l0 125 -165 -86 -164
-86 34 73 c84 183 119 351 120 573 0 253 -44 442 -151 645 -72 136 -133 217
-239 319 -127 121 -255 199 -416 250 -74 24 -234 51 -299 51 -59 0 -233 -34
-312 -61 -345 -118 -627 -435 -738 -829 -25 -91 -60 -313 -60 -385 0 -144 60
-419 120 -552 17 -36 28 -68 26 -71 -3 -2 -70 35 -151 82 -80 47 -148 86 -151
86 -3 0 -5 -53 -4 -117 1 -65 1 -122 0 -128 -1 -15 -84 160 -108 230 -40 115
-63 221 -78 365 -14 124 -14 166 -4 290 12 131 21 178 79 395 4 17 22 61 39
98 18 38 32 71 32 73 0 9 83 148 100 169 9 11 19 27 22 35 3 8 48 65 100 125
147 171 294 285 496 382 113 54 142 64 296 104 144 37 388 45 566 18z m3 -383
c165 -49 296 -127 429 -254 186 -179 317 -433 362 -701 21 -122 21 -340 0
-462 -20 -117 -73 -280 -123 -375 l-38 -73 37 -6 c33 -5 53 2 164 60 l126 67
0 -106 c0 -105 0 -107 26 -118 24 -11 29 -10 53 18 l26 31 120 -19 c66 -10
125 -21 132 -23 13 -4 -60 -147 -119 -234 -337 -497 -967 -793 -1579 -742
-621 52 -1130 378 -1413 905 -20 37 -36 69 -34 71 5 4 216 35 240 35 16 0 27
-9 37 -31 10 -22 19 -29 35 -27 20 3 21 9 24 121 1 64 5 117 9 117 3 0 61 -32
129 -71 104 -60 128 -70 153 -64 l30 6 -40 81 c-219 436 -168 1005 126 1396
166 221 410 377 662 422 26 5 113 7 193 6 121 -3 160 -8 233 -30z"/>
<path d="M1691 3321 c-56 -6 -85 -31 -37 -31 22 0 26 -5 26 -29 0 -51 12 -91
27 -91 12 0 13 12 8 65 -7 62 -6 65 14 65 12 0 21 6 21 15 0 8 -1 14 -2 13 -2
-1 -27 -4 -57 -7z"/>
<path d="M1780 3328 c0 -2 11 -25 25 -51 17 -34 22 -58 18 -78 -5 -25 -2 -29
16 -29 17 0 21 6 21 36 0 20 8 48 18 62 33 48 34 52 14 52 -11 0 -24 -13 -34
-32 l-15 -33 -14 38 c-8 24 -19 37 -31 37 -10 0 -18 -1 -18 -2z"/>
<path d="M1574 3303 c-8 -3 -8 -23 2 -75 15 -80 15 -80 32 -70 9 6 9 23 0 72
-12 70 -17 80 -34 73z"/>
<path d="M2013 3293 c-22 -8 -14 -51 13 -72 28 -22 27 -58 -1 -47 -8 3 -22 9
-30 12 -10 4 -15 0 -15 -10 0 -37 94 -32 106 6 5 17 0 28 -26 49 -35 30 -33
54 5 45 27 -7 43 9 19 18 -18 7 -53 7 -71 -1z"/>
<path d="M1494 3263 c3 -16 8 -39 12 -53 6 -22 2 -20 -38 18 -70 67 -86 57
-59 -39 11 -41 24 -65 34 -67 15 -3 15 1 2 45 -21 69 -19 71 26 19 38 -42 79
-61 79 -35 0 35 -36 139 -48 139 -11 0 -13 -8 -8 -27z"/>
<path d="M2131 3209 c-12 -39 -21 -72 -19 -73 11 -8 91 -27 95 -22 10 9 -8 26
-28 26 -22 0 -37 26 -22 41 6 6 19 6 36 0 21 -8 27 -8 27 3 0 8 -12 17 -26 20
-17 5 -24 12 -22 24 4 18 9 19 46 7 16 -4 22 -2 22 8 0 8 -12 18 -27 21 -16 4
-35 9 -44 12 -11 3 -21 -13 -38 -67z"/>
<path d="M1310 3231 c0 -5 9 -30 20 -55 22 -53 17 -78 -14 -74 -14 2 -29 20
-46 55 -19 39 -29 50 -39 44 -11 -7 -9 -19 12 -64 28 -61 57 -78 96 -58 40 22
45 48 21 107 -12 30 -29 54 -36 54 -8 0 -14 -4 -14 -9z"/>
<path d="M2267 3182 c-32 -71 -35 -83 -21 -89 6 -2 22 20 35 49 l24 53 3 -60
c3 -55 14 -85 32 -85 7 0 55 100 62 129 2 7 -2 15 -8 18 -6 2 -21 -19 -33 -47
-24 -55 -30 -62 -29 -27 4 63 -3 97 -21 106 -16 9 -22 3 -44 -47z"/>
<path d="M1136 3157 c-18 -13 -16 -37 10 -102 5 -14 -5 -9 -34 18 -75 67 -102
40 -51 -50 40 -72 37 -69 50 -56 7 7 2 25 -20 59 -35 57 -33 70 5 25 29 -35
60 -55 73 -46 5 3 3 28 -5 58 -20 74 -18 77 17 21 39 -62 37 -60 50 -47 8 8 0
28 -31 72 -24 34 -44 61 -45 61 0 0 -9 -6 -19 -13z"/>
<path d="M2438 3138 c-48 -73 -62 -118 -37 -118 8 0 79 120 79 133 0 16 -29 5
-42 -15z"/>
<path d="M2485 3075 c-34 -33 -33 -77 1 -104 37 -29 70 -26 105 8 34 35 36 59
8 95 -28 35 -80 36 -114 1z m89 -11 c22 -22 20 -31 -14 -65 -25 -25 -33 -28
-50 -19 -27 14 -25 46 5 75 28 29 38 31 59 9z"/>
<path d="M951 3036 c-10 -12 -10 -23 -1 -50 6 -20 16 -38 21 -41 5 -4 9 -10 9
-15 0 -5 -21 4 -46 20 -36 23 -51 27 -65 19 -11 -5 -19 -12 -19 -15 0 -12 95
-122 102 -118 15 10 8 31 -22 59 -45 43 -36 49 20 14 27 -17 54 -28 60 -24 6
4 -2 29 -20 66 -17 32 -28 59 -25 59 2 0 23 -20 46 -45 30 -32 45 -43 53 -35
7 7 -6 27 -45 66 -48 48 -57 53 -68 40z"/>
<path d="M2632 2963 c-33 -36 -48 -61 -42 -67 6 -6 18 -2 33 12 32 30 52 12
32 -28 -12 -24 -12 -30 -1 -40 12 -9 17 -4 27 24 8 22 21 37 35 40 40 10 40
44 2 83 l-35 34 -51 -58z m84 -22 c-8 -12 -39 -15 -49 -4 -4 3 1 15 10 25 14
16 19 17 31 4 8 -8 11 -19 8 -25z"/>
<path d="M762 2857 c-30 -32 -28 -72 4 -102 37 -34 86 -34 113 1 28 35 26 56
-5 93 -33 39 -80 42 -112 8z m87 -28 c25 -23 24 -47 -2 -63 -21 -14 -70 10
-75 37 -10 48 36 64 77 26z"/>
<path d="M2778 2823 c-32 -24 -58 -48 -58 -53 0 -19 19 -19 43 0 23 19 25 19
41 1 22 -24 20 -36 -6 -54 -16 -11 -20 -18 -12 -26 7 -8 27 2 72 35 34 25 59
50 56 55 -8 14 -25 11 -46 -8 -19 -17 -20 -16 -39 7 -19 25 -19 25 7 46 20 16
22 23 12 31 -10 8 -27 0 -70 -34z"/>
<path d="M665 2740 c-8 -16 -15 -36 -15 -45 0 -26 55 -75 85 -75 33 0 93 56
77 72 -8 8 -18 3 -35 -17 -19 -23 -29 -27 -51 -21 -38 9 -54 48 -33 79 15 23
13 37 -4 37 -5 0 -15 -13 -24 -30z"/>
<path d="M2882 2690 c-59 -38 -72 -53 -54 -64 10 -6 132 73 132 85 0 20 -21
15 -78 -21z"/>
<path d="M2909 2627 c-42 -32 -43 -84 -3 -128 14 -15 18 -15 44 -2 39 19 41
24 25 53 l-13 25 -11 -27 c-12 -32 -26 -36 -39 -10 -31 59 63 101 96 42 9 -16
22 -30 29 -30 17 0 4 36 -23 65 -25 27 -77 34 -105 12z"/>
<path d="M565 2579 c-10 -15 1 -25 44 -39 23 -7 41 -16 41 -19 0 -3 -26 -7
-57 -9 -50 -2 -72 -12 -73 -33 0 -12 140 -68 145 -58 10 15 -2 25 -45 39 -62
21 -58 30 13 30 51 0 66 4 71 16 8 21 13 17 -66 53 -38 17 -70 26 -73 20z"/>
<path d="M2993 2477 c-71 -23 -86 -50 -27 -45 30 3 38 -1 45 -20 8 -21 5 -25
-21 -35 -28 -11 -42 -37 -19 -37 28 0 139 47 139 59 0 10 -9 12 -34 7 -30 -6
-34 -4 -40 20 -7 27 5 44 32 44 6 0 12 7 12 15 0 19 -11 18 -87 -8z"/>
<path d="M497 2413 c-14 -14 -6 -21 41 -33 57 -16 72 -26 72 -53 0 -18 -5 -19
-47 -14 -27 4 -58 9 -70 13 -16 4 -23 2 -23 -8 0 -17 61 -38 108 -38 42 0 70
39 56 78 -7 20 -22 31 -59 44 -57 19 -69 21 -78 11z"/>
<path d="M3082 2267 c-6 -6 -14 -25 -17 -40 -9 -36 -39 -32 -43 6 -2 16 -9 27
-19 27 -12 0 -14 -7 -9 -32 8 -41 23 -58 51 -58 26 0 40 14 49 53 8 35 30 31
34 -6 4 -33 32 -37 32 -4 0 50 -52 86 -78 54z"/>
<path d="M450 2243 c0 -12 14 -33 30 -46 17 -14 30 -27 30 -29 0 -2 -16 -2
-35 0 -26 3 -35 0 -35 -11 0 -11 20 -18 72 -25 39 -6 75 -9 80 -6 11 7 10 24
-1 24 -5 0 -22 5 -38 11 l-28 11 43 19 c23 10 42 25 42 33 0 14 -7 13 -47 -3
l-48 -19 -32 31 c-30 28 -33 29 -33 10z"/>
<path d="M3037 2122 c-21 -22 -24 -106 -4 -99 6 2 11 15 9 29 -4 32 21 58 57
58 35 0 51 -17 51 -52 0 -18 5 -28 15 -28 22 0 19 52 -6 84 -16 21 -29 26 -63
26 -29 0 -48 -6 -59 -18z"/>
<path d="M430 2053 l0 -48 80 -3 80 -4 0 52 c0 58 -23 67 -28 12 -2 -24 -8
-32 -23 -32 -14 0 -19 7 -19 30 0 38 -19 39 -26 1 -8 -38 -34 -30 -34 10 0 19
-5 29 -15 29 -11 0 -15 -12 -15 -47z"/>
<path d="M3020 1981 c0 -17 6 -21 35 -21 32 0 34 -2 32 -30 -2 -28 -5 -30 -39
-30 -27 0 -38 -4 -38 -15 0 -12 13 -15 58 -15 31 0 67 -3 80 -6 18 -5 22 -2
22 15 0 11 -3 20 -7 20 -39 -6 -53 2 -53 31 0 28 3 30 35 30 24 0 35 5 35 15
0 12 -14 15 -64 15 -35 0 -71 3 -80 6 -12 4 -16 0 -16 -15z"/>
<path d="M538 1956 c-16 -9 -30 -11 -33 -5 -9 13 -49 11 -63 -3 -13 -13 -16
-66 -4 -85 11 -18 152 -5 152 13 0 9 -11 14 -30 14 -20 0 -30 5 -30 16 0 8 14
20 30 25 17 6 30 17 30 25 0 18 -18 18 -52 0z m-35 -45 c3 -14 -2 -20 -19 -24
-28 -5 -37 4 -28 27 9 22 41 20 47 -3z"/>
<path d="M574 1795 c6 -31 4 -35 -13 -35 -14 0 -23 9 -27 25 -9 36 -32 32 -26
-5 4 -25 1 -30 -17 -30 -16 0 -21 6 -21 25 0 15 -6 25 -14 25 -11 0 -13 -9 -9
-37 3 -21 8 -41 12 -45 3 -3 38 -1 76 6 56 9 70 15 69 29 -3 71 -5 77 -20 77
-13 0 -15 -7 -10 -35z"/>
<path d="M3015 1805 c-30 -29 -32 -54 -5 -88 52 -66 157 -27 141 53 -1 8 -12
25 -24 38 -28 31 -80 30 -112 -3z m96 -24 c20 -16 22 -23 13 -38 -13 -21 -69
-29 -90 -12 -17 14 -18 41 -2 57 18 18 53 15 79 -7z"/>
<path d="M518 1673 c-35 -3 -48 -8 -48 -20 0 -12 10 -14 63 -9 l62 6 -52 -27
c-56 -28 -57 -31 -45 -50 6 -9 22 -10 62 -4 30 5 57 7 58 6 2 -2 -19 -15 -47
-29 -28 -15 -51 -33 -51 -41 0 -22 12 -19 79 21 40 24 61 43 61 55 0 17 -6 18
-62 13 l-63 -5 50 27 c61 32 57 28 49 48 -6 16 -13 17 -116 9z"/>
<path d="M2971 1641 c-36 -36 -26 -92 20 -116 40 -21 66 -19 94 10 48 48 21
112 -51 122 -34 4 -46 1 -63 -16z m87 -27 c44 -31 12 -85 -40 -65 -38 14 -51
36 -38 60 13 25 47 27 78 5z"/>
<path d="M621 1479 c-76 -34 -78 -36 -65 -49 12 -12 144 44 144 60 0 19 -17
17 -79 -11z"/>
<path d="M2892 1471 c-17 -30 -19 -41 -10 -47 6 -4 13 -3 15 3 2 6 10 19 18
29 13 18 15 18 69 -9 66 -32 66 -32 66 -12 0 13 -106 75 -128 75 -5 0 -18 -18
-30 -39z"/>
<path d="M1302 2791 c-61 -21 -112 -66 -148 -130 -13 -24 -24 -45 -24 -47 0
-2 23 10 51 28 58 35 205 168 186 168 -6 -1 -36 -9 -65 -19z"/>
<path d="M2298 2747 c37 -35 93 -81 125 -101 l57 -36 -24 48 c-43 83 -101 127
-193 147 -31 6 -29 3 35 -58z"/>
<path d="M1149 2740 c-80 -42 -103 -90 -133 -269 -6 -32 -5 -33 11 -19 10 9
50 35 88 58 82 49 121 83 142 125 15 29 15 30 -3 14 -11 -9 -46 -30 -80 -47
-33 -17 -71 -42 -85 -56 -33 -36 -44 -32 -21 7 10 17 30 59 43 91 13 33 37 72
52 88 33 33 33 33 -14 8z"/>
<path d="M2447 2730 c17 -16 38 -51 48 -77 9 -27 28 -67 42 -90 27 -48 19 -56
-18 -17 -13 14 -51 40 -84 56 -33 17 -68 38 -79 47 -18 16 -18 15 -3 -14 21
-42 60 -76 142 -125 39 -23 78 -49 88 -58 16 -14 17 -13 11 19 -26 160 -35
183 -83 230 -26 25 -58 48 -71 52 -21 5 -20 4 7 -23z"/>
<path d="M980 2595 c-59 -86 -71 -158 -52 -325 l8 -65 16 30 c10 17 50 65 90
107 76 81 137 169 101 149 -66 -39 -138 -101 -157 -136 -11 -22 -22 -42 -23
-44 -2 -2 -5 -2 -8 1 -3 3 1 23 9 44 7 22 17 78 21 124 4 47 13 102 20 123 7
20 11 37 9 37 -2 0 -17 -20 -34 -45z"/>
<path d="M2590 2639 c0 -4 6 -22 14 -40 8 -19 17 -72 21 -119 4 -46 14 -102
21 -124 8 -21 12 -41 9 -44 -3 -3 -6 -3 -7 -1 -2 2 -13 22 -24 44 -18 34 -90
97 -156 135 -33 20 30 -74 103 -150 39 -41 78 -88 87 -105 l16 -30 11 100 c12
114 5 178 -24 238 -20 41 -70 108 -71 96z"/>
<path d="M1270 2115 l1 -510 97 -65 c53 -36 169 -114 257 -174 88 -60 168
-111 177 -113 9 -3 65 29 135 77 65 45 181 125 258 178 l140 97 -5 510 -5 510
-528 0 -527 0 0 -510z m530 165 l0 -300 -240 0 -240 0 0 293 c0 162 3 297 7
300 3 4 111 7 240 7 l233 0 0 -300z m480 0 l0 -300 -225 0 -225 0 0 293 c0
162 3 297 7 300 3 4 105 7 225 7 l218 0 0 -300z m0 -478 l0 -129 -52 -12
c-104 -24 -180 -25 -229 -4 -44 20 -47 20 -115 2 -107 -28 -214 -22 -235 12
-4 7 -23 5 -55 -6 -78 -26 -176 -31 -229 -11 l-45 18 0 129 0 129 480 0 480 0
0 -128z m-885 -199 c44 -16 105 -12 192 13 46 13 55 13 81 0 53 -28 102 -29
200 -6 91 21 94 21 130 4 46 -23 134 -23 217 -1 33 9 63 13 68 8 5 -5 -48 -48
-120 -97 -70 -48 -179 -123 -241 -166 l-113 -78 -241 163 c-133 90 -244 169
-246 177 -3 9 0 11 14 5 11 -4 37 -14 59 -22z"/>
<path d="M1392 2418 c-20 -26 -27 -86 -24 -227 l3 -144 57 7 c31 3 73 2 92 -4
25 -7 50 -7 87 1 37 9 63 9 92 1 l41 -10 0 182 c0 128 -4 186 -12 194 -17 17
-322 17 -336 0z m138 -163 l0 -125 -50 0 -50 0 0 125 0 125 50 0 50 0 0 -125z
m160 0 l0 -125 -55 0 -55 0 0 125 0 125 55 0 55 0 0 -125z m-160 -155 c0 -5
-22 -10 -50 -10 -27 0 -50 5 -50 10 0 6 23 10 50 10 28 0 50 -4 50 -10z m155
0 c4 -6 -13 -10 -44 -10 -28 0 -51 5 -51 10 0 6 20 10 44 10 25 0 48 -4 51
-10z"/>
<path d="M2020 2513 c0 -6 -16 -30 -35 -53 -41 -49 -42 -56 -12 -88 17 -20 18
-24 5 -19 -24 8 -23 6 12 -56 28 -49 30 -61 30 -150 0 -97 0 -97 25 -97 25 0
25 0 25 96 0 90 2 100 30 146 35 57 35 58 13 58 -14 0 -13 3 5 16 32 22 27 48
-15 79 -21 15 -48 39 -60 54 -13 14 -23 21 -23 14z m55 -65 c24 -18 44 -40 45
-49 0 -25 -55 -44 -97 -33 -54 14 -62 35 -29 78 15 20 29 36 32 36 3 0 25 -15
49 -32z"/>
<path d="M1712 1898 c-15 -15 -16 -45 -2 -53 17 -10 12 -65 -6 -72 -9 -3 -58
1 -107 10 -50 9 -93 14 -95 12 -8 -8 168 -107 216 -121 66 -20 118 -13 198 25
57 27 154 104 144 114 -3 3 -42 -3 -86 -13 -45 -9 -111 -21 -148 -24 -62 -7
-66 -6 -66 13 0 12 9 22 22 27 l23 7 -23 8 c-20 8 -21 11 -10 29 11 18 10 23
-6 36 -24 17 -38 18 -54 2z"/>
<path d="M1450 1551 c0 -12 15 -26 45 -40 55 -26 133 -27 225 -2 55 14 66 20
68 40 3 21 1 23 -20 17 -108 -29 -179 -37 -232 -26 -31 6 -58 16 -61 21 -10
16 -25 10 -25 -10z"/>
<path d="M1810 1551 c0 -13 15 -26 43 -40 53 -26 135 -27 227 -3 55 14 66 21
68 41 3 21 1 23 -20 17 -108 -29 -179 -37 -232 -26 -31 6 -58 16 -61 21 -10
16 -25 10 -25 -10z"/>
<path d="M1640 1459 c0 -46 113 -78 209 -59 107 20 131 30 131 50 0 24 -6 24
-85 5 -85 -21 -173 -19 -218 4 -36 19 -37 19 -37 0z"/>
<path d="M864 2363 c-14 -36 -19 -73 -19 -148 0 -95 2 -104 36 -175 20 -41 39
-82 42 -90 2 -8 8 3 12 24 4 22 28 83 53 135 43 94 82 194 82 214 0 5 -11 -5
-25 -24 -75 -103 -100 -144 -116 -191 l-18 -53 0 51 c-1 29 -8 87 -17 130 -9
43 -14 99 -12 126 3 26 4 48 3 48 -1 0 -11 -21 -21 -47z"/>
<path d="M2727 2364 c3 -28 -2 -85 -11 -128 -9 -43 -16 -100 -16 -128 0 -30
-4 -47 -10 -43 -5 3 -10 17 -10 31 0 14 -7 39 -16 57 -18 36 -116 168 -121
163 -6 -6 36 -115 77 -203 23 -48 48 -108 55 -133 7 -25 14 -37 14 -28 1 9 18
49 39 90 36 71 37 76 36 178 -1 82 -5 115 -21 150 l-20 45 4 -51z"/>
<path d="M806 2083 c-21 -90 25 -199 132 -315 l77 -83 0 105 c0 58 4 149 8
203 4 53 4 97 0 97 -4 0 -21 -40 -37 -88 -21 -64 -27 -101 -25 -140 2 -28 1
-52 -2 -52 -4 0 -23 33 -43 73 -19 39 -47 94 -62 120 -15 27 -30 63 -34 80
l-7 32 -7 -32z"/>
<path d="M2791 2093 c-1 -27 -17 -65 -50 -118 -14 -22 -40 -69 -58 -105 l-32
-65 -1 60 c0 60 -46 224 -63 225 -5 0 -5 -46 0 -102 4 -57 8 -148 8 -203 l0
-100 75 81 c41 45 85 102 98 127 32 64 48 155 34 193 -9 25 -11 26 -11 7z"/>
<path d="M1053 1770 c1 -96 6 -133 20 -159 24 -47 14 -50 -23 -8 -17 20 -61
60 -97 89 -36 29 -79 73 -96 98 -28 44 -29 44 -24 13 10 -53 47 -121 96 -175
35 -40 67 -62 138 -95 51 -24 95 -43 97 -43 3 0 -3 15 -13 33 -19 33 -35 98
-46 197 -4 30 -17 82 -30 115 l-25 60 3 -125z"/>
<path d="M2532 1830 c-12 -36 -27 -105 -33 -155 -6 -55 -19 -109 -33 -137 -13
-27 -21 -48 -19 -48 2 0 45 19 96 43 103 49 150 91 196 177 26 49 56 140 45
140 -2 0 -10 -16 -18 -35 -8 -19 -39 -56 -68 -82 -29 -27 -81 -76 -115 -110
-35 -34 -63 -56 -63 -48 0 8 4 16 9 19 19 12 32 96 29 196 l-3 104 -23 -64z"/>
<path d="M1143 1655 c3 -11 13 -45 21 -75 21 -71 47 -114 85 -136 44 -26 38
-38 -6 -15 -21 10 -74 29 -118 41 -97 27 -130 43 -174 84 l-34 31 19 -33 c52
-92 128 -148 224 -163 25 -4 87 -5 137 -2 88 6 91 7 65 20 -40 21 -89 71 -125
128 -47 74 -100 143 -94 120z"/>
<path d="M2455 1656 c-6 -8 -35 -51 -66 -97 -61 -90 -98 -129 -141 -152 -26
-13 -23 -14 62 -20 185 -14 288 33 364 165 l20 33 -40 -35 c-43 -39 -53 -44
-194 -90 -138 -45 -138 -45 -98 -16 44 31 63 65 88 155 20 69 20 78 5 57z"/>
<path d="M1050 1383 c0 -5 15 -23 33 -41 28 -27 48 -35 139 -53 l106 -22 91
37 c71 29 99 35 126 30 46 -8 106 -52 147 -108 28 -37 73 -64 86 -51 2 1 -27
33 -63 70 -117 119 -201 141 -388 105 -103 -21 -123 -22 -171 -11 -30 7 -66
21 -80 32 -14 11 -26 17 -26 12z"/>
<path d="M2532 1370 c-12 -10 -47 -24 -78 -31 -48 -11 -68 -10 -171 11 -187
36 -267 14 -387 -105 -37 -37 -66 -69 -64 -70 13 -13 60 16 94 59 47 60 90 91
139 100 27 5 55 -1 126 -30 l91 -37 106 22 c95 19 111 25 141 56 38 37 40 55
3 25z"/>
<path d="M972 988 c9 -128 17 -242 17 -253 1 -19 27 -24 402 -80 l401 -59 377
48 c207 26 387 49 402 52 l25 5 22 251 c12 138 21 252 19 254 -2 2 -346 -41
-683 -86 l-161 -21 -129 20 c-252 40 -672 101 -691 101 -18 0 -18 -5 -1 -232z
m429 112 c183 -27 335 -53 336 -57 4 -10 107 -8 122 1 6 4 149 25 319 46 169
22 325 42 348 46 l40 6 -3 -34 c-15 -173 -35 -353 -39 -357 -8 -8 -664 -90
-724 -91 -44 0 -500 64 -700 98 l-45 8 -12 159 c-16 226 -16 225 5 225 10 0
169 -22 353 -50z"/>
<path d="M1182 969 c-12 -51 -21 -94 -18 -96 2 -2 28 -11 57 -18 41 -11 55
-12 61 -2 13 21 9 25 -32 32 -22 4 -40 10 -40 13 0 4 9 41 20 82 11 41 20 76
20 78 0 1 -10 2 -23 2 -21 0 -25 -9 -45 -91z"/>
<path d="M2343 1018 c-49 -10 -50 -14 -29 -97 8 -31 17 -68 20 -83 5 -21 10
-25 28 -21 82 18 98 25 98 39 0 12 -8 14 -44 9 -38 -6 -44 -4 -49 14 -6 24 -4
26 40 35 23 5 30 12 26 22 -4 12 -15 14 -44 9 -37 -6 -39 -5 -39 19 0 19 5 26
19 26 30 0 51 11 51 26 0 16 -16 16 -77 2z"/>
<path d="M1381 916 c-28 -46 -51 -86 -51 -90 0 -15 40 -4 54 15 12 18 19 20
43 12 19 -6 29 -18 32 -34 3 -23 17 -39 35 -39 15 0 0 201 -16 211 -30 20 -47
7 -97 -75z m79 4 c0 -40 -5 -45 -34 -34 -13 5 -13 10 2 40 22 44 32 43 32 -6z"/>
<path d="M2219 993 c-16 -4 -28 -56 -29 -127 -1 -24 -6 -16 -24 39 -20 61 -27
70 -47 70 -23 0 -24 -4 -27 -72 -2 -40 -6 -73 -10 -73 -4 0 -16 30 -27 68 -17
56 -24 66 -40 64 -11 -2 -21 -5 -23 -7 -2 -1 14 -44 34 -94 31 -77 40 -91 59
-91 19 0 23 7 29 46 3 26 6 61 7 78 0 25 6 16 26 -42 22 -65 27 -72 46 -66 12
4 23 7 24 8 3 3 24 198 21 200 -2 1 -10 1 -19 -1z"/>
<path d="M1575 883 c-9 -43 -18 -88 -21 -101 -4 -20 -1 -23 18 -20 16 2 24 11
26 30 2 14 9 32 17 38 11 9 16 3 26 -32 12 -43 32 -68 55 -68 9 0 6 18 -9 64
l-20 64 37 33 c37 32 38 33 15 41 -18 7 -30 2 -62 -29 l-39 -38 7 39 c6 37 -3
55 -27 56 -4 0 -14 -35 -23 -77z"/>
<path d="M1804 917 c-20 -18 -28 -35 -32 -75 -4 -47 -2 -54 26 -82 65 -65 162
-21 162 75 0 38 -5 52 -29 76 -37 37 -88 39 -127 6z m83 -15 c19 -12 33 -60
26 -92 -12 -60 -74 -64 -93 -6 -15 48 9 106 45 106 6 0 15 -4 22 -8z"/>
<path d="M452 939 c-39 -31 -60 -55 -55 -62 4 -7 19 -29 34 -50 31 -43 49 -33
22 13 -16 27 -16 31 -2 46 15 14 18 13 36 -16 13 -21 23 -28 28 -21 4 7 -1 23
-10 37 -13 20 -14 28 -5 40 10 12 16 9 33 -14 11 -15 22 -29 24 -31 2 -3 7 0
12 5 5 5 -4 28 -23 56 l-32 47 -62 -50z"/>
<path d="M3106 928 c-11 -16 -12 -26 -5 -41 11 -19 30 -20 72 -2 22 9 23 -13
0 -30 -11 -8 -12 -14 -5 -19 13 -8 52 28 52 49 0 24 -35 37 -64 23 -31 -14
-48 -2 -24 16 10 7 15 16 11 19 -11 12 -21 8 -37 -15z"/>
<path d="M3014 835 c-15 -23 -15 -27 0 -49 29 -46 97 -46 118 -1 15 33 2 45
-18 17 -8 -12 -22 -22 -30 -22 -20 0 -18 10 8 37 19 20 20 25 8 33 -29 18 -69
11 -86 -15z m50 -4 c7 -10 -22 -37 -30 -28 -9 8 3 37 15 37 5 0 12 -4 15 -9z"/>
<path d="M506 819 c-34 -27 -35 -66 -2 -75 13 -3 27 -15 30 -26 5 -22 3 -23
140 94 6 5 5 13 -2 20 -9 9 -17 7 -35 -10 -27 -25 -37 -28 -37 -8 0 31 -57 34
-94 5z m74 -29 c0 -27 -47 -50 -60 -30 -6 10 -3 21 7 32 22 25 53 23 53 -2z"/>
<path d="M2943 754 c-15 -24 -15 -29 -2 -53 20 -35 86 -42 114 -11 22 24 12
39 -15 22 -44 -27 -87 -1 -62 38 11 17 7 30 -9 30 -5 0 -16 -12 -26 -26z"/>
<path d="M617 729 c-42 -34 -47 -69 -12 -79 11 -3 20 -11 20 -17 0 -7 3 -14 6
-15 10 -4 99 62 99 72 0 21 -23 19 -51 -4 -57 -48 -89 -26 -33 23 19 17 32 36
29 41 -9 15 -18 12 -58 -21z"/>
<path d="M2837 704 c-9 -10 2 -24 19 -24 8 0 14 7 14 15 0 15 -21 21 -33 9z"/>
<path d="M2874 669 c-3 -6 -2 -14 3 -18 5 -3 26 -19 46 -34 32 -26 57 -29 57
-9 0 9 -80 72 -91 72 -4 0 -11 -5 -15 -11z"/>
<path d="M702 640 c-29 -28 -28 -54 5 -80 28 -21 48 -11 24 13 -6 6 -11 19
-11 29 0 21 46 36 63 19 15 -15 27 -14 27 2 0 15 -41 37 -69 37 -9 0 -27 -9
-39 -20z"/>
<path d="M2830 630 c-12 -8 -12 -14 3 -45 24 -50 22 -51 -21 -17 -29 24 -42
28 -56 20 -15 -8 -10 -14 37 -44 66 -41 92 -38 81 10 -13 60 -28 86 -44 76z"/>
<path d="M837 584 c-3 -4 4 -15 16 -24 30 -25 17 -34 -21 -14 -24 11 -36 13
-52 4 -11 -6 -20 -15 -20 -20 0 -19 13 -40 25 -40 7 0 15 -7 19 -15 8 -22 21
-19 61 16 41 36 43 48 12 77 -25 24 -30 26 -40 16z m-2 -63 c3 -5 1 -13 -5
-16 -15 -9 -43 3 -35 15 8 13 32 13 40 1z"/>
<path d="M950 539 c0 -6 -7 -8 -15 -5 -10 3 -18 -1 -22 -12 -3 -9 -18 -30 -32
-45 -20 -22 -23 -31 -15 -45 15 -23 40 -22 36 1 -5 28 26 58 53 51 19 -5 22
-1 22 25 0 17 -6 32 -14 35 -7 3 -13 1 -13 -5z"/>
<path d="M2704 526 c-3 -8 -13 -12 -25 -9 -10 3 -19 2 -19 -1 0 -5 44 -81 55
-94 1 -1 10 0 19 4 15 6 14 9 -4 39 -18 29 -18 34 -5 45 8 7 12 16 9 21 -8 13
-24 11 -30 -5z"/>
<path d="M1040 495 c0 -10 7 -15 18 -13 21 4 19 22 -2 26 -10 2 -16 -3 -16
-13z"/>
<path d="M970 434 c-34 -36 -38 -45 -25 -50 11 -5 30 6 56 32 43 42 46 49 25
57 -8 3 -31 -13 -56 -39z"/>
<path d="M2570 452 c-18 -15 -22 -25 -16 -46 12 -48 72 -58 120 -21 30 23 9
31 -25 11 -23 -13 -34 -15 -42 -7 -6 6 -7 11 -1 11 5 0 20 9 34 19 20 16 22
21 11 35 -18 21 -54 20 -81 -2z m50 -12 c0 -5 -9 -14 -20 -20 -15 -8 -20 -8
-20 3 0 8 3 17 7 20 10 10 33 8 33 -3z"/>
<path d="M2439 442 c-63 -31 -47 -82 27 -82 23 0 45 -4 48 -9 7 -11 -12 -28
-37 -32 -24 -5 -23 -23 1 -27 23 -4 72 34 72 57 0 28 -21 41 -67 41 -49 0 -61
25 -18 36 14 3 25 10 25 14 0 18 -18 19 -51 2z"/>
<path d="M1035 405 c-30 -29 -30 -36 -7 -63 26 -32 63 -37 95 -12 37 29 36 65
-3 85 -40 21 -57 19 -85 -10z m82 -21 c5 -16 -25 -44 -48 -44 -12 0 -19 7 -19
20 0 32 57 53 67 24z"/>
<path d="M1168 341 c-24 -43 -25 -50 -11 -56 10 -3 20 0 24 8 5 8 17 25 28 38
16 20 22 22 33 11 11 -11 10 -18 -5 -43 -18 -32 -15 -49 7 -49 17 0 50 74 43
94 -6 15 -24 20 -53 17 -7 -1 -14 5 -18 14 -9 25 -20 17 -48 -34z"/>
<path d="M2223 370 c-24 -10 -33 -55 -12 -62 8 -3 8 -10 -2 -26 -28 -44 30
-79 83 -51 13 7 33 12 46 10 12 -1 22 2 22 8 0 6 -5 11 -10 11 -7 0 -8 13 -4
35 5 28 3 35 -10 35 -9 0 -16 -8 -16 -19 0 -27 -11 -32 -33 -16 -12 8 -14 15
-8 20 17 10 13 52 -5 59 -19 7 -23 7 -51 -4z m37 -30 c0 -21 -15 -27 -25 -10
-7 12 2 30 16 30 5 0 9 -9 9 -20z m30 -81 c0 -15 -34 -19 -48 -5 -22 22 -6 38
23 24 14 -6 25 -15 25 -19z"/>
<path d="M2041 331 c-10 -7 -9 -21 6 -77 16 -54 24 -70 40 -72 l21 -3 -22 75
c-24 84 -26 88 -45 77z"/>
<path d="M1448 261 c-23 -64 -23 -70 -7 -74 13 -4 20 6 30 42 18 69 29 72 29
9 0 -78 20 -84 61 -18 17 28 33 50 36 50 4 0 0 -27 -14 -87 -4 -18 -1 -23 15
-23 15 0 21 9 26 43 4 23 9 57 12 75 6 29 4 32 -20 32 -21 0 -33 -10 -56 -47
l-30 -47 0 35 c0 57 -10 79 -35 79 -19 0 -26 -11 -47 -69z"/>
<path d="M1917 263 c-14 -14 -6 -19 23 -15 18 3 30 0 30 -7 0 -6 -8 -11 -18
-11 -26 0 -54 -33 -46 -54 6 -17 23 -18 113 -6 7 0 -11 75 -21 88 -11 13 -70
17 -81 5z m61 -65 c-7 -19 -38 -22 -38 -4 0 10 9 16 21 16 12 0 19 -5 17 -12z"/>
<path d="M1865 250 c-3 -6 -18 -7 -32 -4 -24 6 -26 5 -20 -17 4 -13 7 -34 7
-46 0 -17 6 -23 21 -23 18 0 20 4 14 31 -6 25 -4 31 14 36 12 3 21 12 21 19 0
16 -16 19 -25 4z"/>
<path d="M1665 226 c-13 -19 -14 -29 -5 -45 32 -61 130 -44 130 23 0 26 -30
46 -70 46 -31 0 -43 -5 -55 -24z m83 -22 c4 -29 -23 -51 -43 -34 -18 15 -19
32 -3 48 18 18 42 10 46 -14z"/>
</g>
</svg>
